<svg xmlns="http://www.w3.org/2000/svg" viewBox="0 0 64 64" aria-labelledby="title"
aria-describedby="desc" role="img" xmlns:xlink="http://www.w3.org/1999/xlink"
width="48" height="48">
  <title>Liked Videos</title>
  <desc>A line styled icon from Orion Icon Library.</desc>
  <path data-name="layer2"
  d="M37 51H2s0-7 9.4-8.8S20 38.6 20 37v-2a14.2 14.2 0 0 1-4-7c-2.5 0-4-3-4-6 0-.8 0-4 2-4-1.6-6.4-.4-13 4-13 10.4-7 25-1.5 20 13 2 0 2 3.2 2 4 0 3-1.5 6-4 6a14.1 14.1 0 0 1-4 7v2a3.8 3.8 0 0 0 2.5 3.4"
  fill="none" stroke="currentColor" stroke-miterlimit="10" stroke-width="2" stroke-linejoin="round"
  stroke-linecap="round"></path>
  <path data-name="layer1" d="M55 36a7.7 7.7 0 0 0-7 5 7.7 7.7 0 0 0-7-5 6.9 6.9 0 0 0-7 7c0 9 14 19 14 19s14-10 14-19a6.9 6.9 0 0 0-7-7z"
  fill="none" stroke="currentColor" stroke-miterlimit="10" stroke-width="2" stroke-linejoin="round"
  stroke-linecap="round"></path>
</svg>